# xmcd CD database file generated by Grip 2.96
# 
# Track frame offsets:
#       187
#       19292
#       30507
#       92272
#       122302
#       132405
#       150460
#       184585
#       229920
# 
# Disc length: 4107 seconds
# 
# Revision: 0
# Processed by: cddbd v1.5.2PL0 Copyright (c) Steve Scherf et al.
# Submitted via: Grip 2.96
# 
DISCID=60100909
DTITLE=Vladimir Ashkenazy - Beethoven: The Last 5 Piano Sonatas, PianoSonatas Nos. 28 - 32 (onatas Nos. 28 - 32 [CD2]
DYEAR=1974
DGENRE=
TTITLE0=Piano Sonata No. 30 in E major Op. 109 - I. Vivace, ma non troppo - Adagio espressivo
TTITLE1=Piano Sonata No. 30 in E major Op. 109 - II. Prestissimo
TTITLE2=Piano Sonata No. 30 in E major Op. 109 - III. Andante, molto cantabile ed espressivo
TTITLE3=Piano Sonata No. 31 in A-flat major Op. 110 - I. Moderato cantabile, molto espressivo
TTITLE4=Piano Sonata No. 31 in A-flat major Op. 110 - II. Allegro molto
TTITLE5=Piano Sonata No. 31 in A-flat major Op. 110 - III. Adagio, manon troppo
TTITLE6=Piano Sonata No. 31 in A-flat major Op. 110 - IV. Fuga: Allegro ma non troppo
TTITLE7=Piano Sonata No. 32 in C minor Op. 111 - I. Maestoso - Allegrocon brio ed appassionato
TTITLE8=Piano Sonata No. 32 in C minor Op. 111 - II. Arietta: Adagio molto, semplice e cantabile
EXTD=YEAR: 1974
EXTT0=
EXTT1=
EXTT2=
EXTT3=
EXTT4=
EXTT5=
EXTT6=
EXTT7=
EXTT8=
PLAYORDER=
